# xmcd CD database file
#
# Track frame offsets:
#	150
#	21575
#	45452
#	69185
#	91910
#	112352
#	133567
#	153325
#
# Disc length: 2283 seconds
#
# Revision: 0
# Processed by: cddbd v1.4PL0 Copyright (c) Steve Scherf et al.
# Submitted via: CDex 1.50Beta7
#
DISCID=6608e908
DTITLE=Jossie Esteban and La Patrulla 15 - O.K.... All Right!
DYEAR=1989
DGENRE=Merengue
TTITLE0=Solo Se Que Se Fue en Marzo
TTITLE1=El Cantinero
TTITLE2=Cogele Confianza
TTITLE3=Que Porque te Quiero
TTITLE4=El Moreno Esta
TTITLE5=Ya No Puedo Seguir
TTITLE6=Asi Se Quiere
TTITLE7=Corazon Contento
EXTD=YEAR: 1989
EXTT0=
EXTT1=
EXTT2=
EXTT3=
EXTT4=
EXTT5=
EXTT6=
EXTT7=
PLAYORDER=
